{"title":"Starozytni.kosmici.S06E01.-.Potega.trojcy.720p","uid":9914513,"size":1468151316,"categoryP":"video","categoryS":"hd___tv_shows","magnet":"?xt=urn:btih:48a40e55f59a54aff0f01f3d9b8c818c5bb11ebe&amp;dn=Starozytni.kosmici.S06E01.-.Potega.trojcy.720p&amp;tr=udp%3A%2F%2Ftracker.openbittorrent.com%3A80&amp;tr=udp%3A%2F%2Fopen.demonii.com%3A1337&amp;tr=udp%3A%2F%2Ftracker.coppersurfer.tk%3A6969&amp;tr=udp%3A%2F%2Fexodus.desync.com%3A6969","seeders":1,"leechers":1,"uploader":null,"files":-1,"time":1396927292,"description":"Starozytni kosmici S06E01 - Potega trojcy [HDTV] [H264-KilKr] [Lektor PL].mp4\n\nFormat                         : MPEG-4\nFormat profile                 : Base Media\nCodec ID                       : isom\nFile size                      : 1.37 GiB\nDuration                       : 42mn 9s\nOverall bit rate mode          : Variable\nOverall bit rate               : 4 643 Kbps\nEncoded date                   : UTC 2014-02-28 11:43:08\nTagged date                    : UTC 2014-02-28 11:43:08\n\nVideo\n\nID                             : 1\nFormat                         : AVC\nFormat/Info                    : Advanced Video Codec\nFormat profile                 : &lt;a class=&quot;__cf_email__&quot; href=&quot;/cdn-cgi/l/email-protection&quot; data-cfemail=&quot;5f173638371f136c716e&quot;&gt;[email&amp;#160;protected]&lt;/a&gt;&lt;script cf-hash='f9e31' type=&quot;text/javascript&quot;&gt;\n/* &lt;![CDATA[ */!function(){try{var t=&quot;currentScript&quot;in document?document.currentScript:function(){for(var t=document.getElementsByTagName(&quot;script&quot;),e=t.length;e--;)if(t[e].getAttribute(&quot;cf-hash&quot;))return t[e]}();if(t&amp;&amp;t.previousSibling){var e,r,n,i,c=t.previousSibling,a=c.getAttribute(&quot;data-cfemail&quot;);if(a){for(e=&quot;&quot;,r=parseInt(a.substr(0,2),16),n=2;a.length-n;n+=2)i=parseInt(a.substr(n,2),16)^r,e+=String.fromCharCode(i);e=document.createTextNode(e),c.parentNode.replaceChild(e,c)}}}catch(u){}}();/* ]]&gt; */&lt;/script&gt;\nFormat settings, CABAC         : Yes\nFormat settings, ReFrames      : 4 frames\nCodec ID                       : avc1\nCodec ID/Info                  : Advanced Video Coding\nDuration                       : 42mn 9s\nBit rate                       : 4 478 Kbps\nMaximum bit rate               : 19.7 Mbps\nWidth                          : 1 280 pixels\nHeight                         : 720 pixels\nDisplay aspect ratio           : 16:9\nFrame rate mode                : Constant\nFrame rate                     : 25.000 fps\nColor space                    : YUV\nChroma subsampling             : 4:2:0\nBit depth                      : 8 bits\nScan type                      : Progressive\nBits/(Pixel*Frame)             : 0.194\nStream size                    : 1.32 GiB (96%)\nWriting library                : x264 core 138 r2358 9e941d1\nEncoding settings              : cabac=1 / ref=3 / deblock=1:0:0 / \n\nAudio\n\nID                             : 2\nFormat                         : AAC\nFormat/Info                    : Advanced Audio Codec\nFormat profile                 : LC\nCodec ID                       : 40\nDuration                       : 42mn 9s\nBit rate mode                  : Variable\nBit rate                       : 160 Kbps\nMaximum bit rate               : 165 Kbps\nChannel(s)                     : 2 channels\nChannel positions              : Front: L R\nSampling rate                  : 48.0 KHz\nCompression mode               : Lossy\nStream size                    : 48.3 MiB (3%)\nLanguage                       : Polish\nEncoded date                   : UTC 2014-02-28 11:16:43\nTagged date                    : UTC 2014-02-28 11:43:30\n","torrent":{"xt":"urn:btih:48a40e55f59a54aff0f01f3d9b8c818c5bb11ebe","amp;dn":"Starozytni.kosmici.S06E01.-.Potega.trojcy.720p","amp;tr":["udp%3A%2F%2Ftracker.openbittorrent.com%3A80","udp%3A%2F%2Fopen.demonii.com%3A1337","udp%3A%2F%2Ftracker.coppersurfer.tk%3A6969","udp%3A%2F%2Fexodus.desync.com%3A6969"],"infoHash":"48a40e55f59a54aff0f01f3d9b8c818c5bb11ebe","infoHashBuffer":{"type":"Buffer","data":[72,164,14,85,245,154,84,175,240,240,31,61,155,140,129,140,91,177,30,190]},"announce":[],"urlList":[]}}